PathFileType	4	(X/Y/Z)	/Users/mathieubourgeois/Desktop/Analyse/Traitement/Sujet_01/Data/Transformed_Sujet_01_velo_80.trc
DataRate	CameraRate	NumFrames	NumMarkers	Units	OrigDataRate	OrigDataStartFrame	OrigNumFrames
120.000000	120.000000	5	35	mm	120.000000	733	1957
Frame#	Time	RFHD			LFHD			RBHD			LBHD			RSHO			LSHO			CLAV			STRN			T10			RBWT			LBWT			RFWT			LFWT			RRAD			RWRA			RWRB			RCAR			RHUM			LHUM			LRAD			LWRA			LWRB			LCAR			RKNI			RKNE			LKNI			LKNE			RANE			RANI			RTOE			RHEE			LTOE			LANI			LANE			LHEE			
		X1	Y1	Z1	X2	Y2	Z2	X3	Y3	Z3	X4	Y4	Z4	X5	Y5	Z5	X6	Y6	Z6	X7	Y7	Z7	X8	Y8	Z8	X9	Y9	Z9	X10	Y10	Z10	X11	Y11	Z11	X12	Y12	Z12	X13	Y13	Z13	X14	Y14	Z14	X15	Y15	Z15	X16	Y16	Z16	X17	Y17	Z17	X18	Y18	Z18	X19	Y19	Z19	X20	Y20	Z20	X21	Y21	Z21	X22	Y22	Z22	X23	Y23	Z23	X24	Y24	Z24	X25	Y25	Z25	X26	Y26	Z26	X27	Y27	Z27	X28	Y28	Z28	X29	Y29	Z29	X30	Y30	Z30	X31	Y31	Z31	X32	Y32	Z32	X33	Y33	Z33	X34	Y34	Z34	X35	Y35	Z35	

734	6.108333333333333	135.4252624511718	1531.241333007812	360.2716979980468	160.7315521240234	1535.301147460938	234.9546356201171	-12.22349929809574	1551.660888671875	335.904571533203	5.595503330230688	1556.4794921875	206.4317169189452	-12.10609626770024	1386.939208984375	365.5562438964843	-1.379256725311297	1377.6259765625	145.5294189453124	17.93298912048337	1317.701782226562	273.1440734863281	-37.50698852539066	1224.634399414062	265.7286987304687	-219.0077362060547	1379.598510742188	263.8254394531249	-410.0295715332032	1110.189208984375	327.6842956542968	-411.5357666015625	1101.785278320312	207.7632293701171	-238.4700164794922	1079.291137695312	380.242950439453	-231.1728057861328	1069.56689453125	156.5778656005859	135.6240234374999	1173.695068359375	488.5107116699218	299.6462402343749	1027.438720703125	408.2918090820312	320.6705627441406	1047.255249023438	467.8536987304688	402.5793762207031	1031.20947265625	405.6382446289062	88.19444274902338	1134.355712890625	460.6239318847656	100.4303283691406	1134.077026367188	85.42281341552729	153.3567504882812	1166.221557617188	60.54084777832026	317.1387329101562	1036.830688476562	163.962158203125	342.6570129394531	1049.642700195312	100.9603881835937	402.2011108398438	1044.085815429688	173.4969177246094	1.902207255363423	877.9373779296875	340.2852478027343	13.37059020996088	907.4765014648438	462.3378601074218	-111.7921142578125	658.1029663085938	210.8931884765625	-133.4717254638672	643.0794677734375	87.0105361938476	-206.3859863281251	650.7120971679688	430.9172668457031	-181.290512084961	644.6260375976562	352.8187866210937	-54.23168182373052	537.351318359375	429.2651367187499	-280.6494750976563	623.6110229492188	384.993682861328	14.2871103286743	214.6591949462891	133.7462615966797	-145.6865692138672	304.0032348632812	176.2901458740234	-166.9444732666016	298.8393249511719	102.2765579223633	-234.5682220458985	261.6654663085938	141.2452697753906	
735	6.116666666666666	135.5315704345703	1530.64013671875	360.3884277343749	160.6659545898437	1534.765625	234.9998779296874	-12.12137413024906	1551.2412109375	336.2139892578124	5.493494987487767	1556.182861328125	206.7331085205077	-12.34477806091313	1386.662963867188	365.7299499511718	-1.784479737281817	1377.35498046875	145.7118225097655	17.51034355163571	1317.267578125	273.0445861816406	-38.16164016723636	1224.387939453125	265.6672058105468	-219.3134002685547	1379.628540039062	264.1513671874999	-410.7761535644532	1110.541137695312	328.140167236328	-412.5012817382812	1102.145141601562	208.2413635253905	-239.1685638427735	1079.62841796875	380.2503356933593	-232.0725555419922	1069.819946289062	156.526626586914	135.2108764648437	1173.490234375	488.7244873046874	299.2774658203124	1026.984130859375	408.0524291992188	320.4788208007812	1047.325317382812	467.7798767089844	402.5116882324218	1030.480224609375	405.0712890625	87.81220245361322	1134.186401367188	460.7094726562499	100.1133575439453	1133.983032226562	85.78927612304682	152.9682312011719	1166.1279296875	60.85118484497065	316.9155883789062	1036.801879882812	164.0306549072265	342.3721923828125	1049.676391601562	101.0117111206054	401.9501037597656	1044.226928710938	173.4955444335938	3.615277528762776	883.3113403320312	340.1373291015624	14.5061531066894	912.99169921875	462.1452636718749	-115.0496673583985	657.0142211914062	210.9981689453125	-137.0094909667969	642.362548828125	87.23385620117182	-198.8483886718751	650.4094848632812	431.2797546386718	-173.5920410156251	645.0625610351562	353.1691894531249	-43.65128326416021	541.316650390625	429.5217285156249	-272.3703002929688	621.2572631835938	385.3897094726561	3.150444507598861	211.6266021728516	133.5296630859375	-155.5056762695313	303.42822265625	176.2875823974609	-176.5873107910156	298.8320922851562	102.2417526245117	-244.9483947753907	262.81982421875	141.1757202148437	
736	6.125	135.6251831054687	1529.988037109375	360.4137268066405	160.5398559570312	1534.1982421875	234.9546203613281	-12.02159500122074	1550.80126953125	336.5284423828124	5.291012287139867	1555.834106445312	207.030548095703	-12.59227848052983	1386.368896484375	365.8634338378906	-2.28092026710512	1377.0517578125	145.8392333984374	16.98935317993161	1316.764038085938	272.8746032714843	-38.963737487793	1224.066162109375	265.5763854980468	-219.6517028808594	1379.68359375	264.4831848144531	-411.6011352539063	1110.926391601562	328.5418395996093	-413.5519409179688	1102.506713867188	208.6451873779296	-240.0323486328126	1079.991821289062	380.3209228515624	-233.0936431884766	1070.110961914062	156.4693145751952	134.8063354492187	1173.3017578125	488.8906249999999	299.0169677734374	1027.135131835938	407.943359375	320.2686767578124	1047.379638671875	467.6921691894531	402.4260864257812	1030.498168945312	404.9984130859375	87.44897460937494	1134.023681640625	460.8523864746093	99.78173828124999	1133.917724609375	86.09787750244135	152.5892333984375	1166.1044921875	61.11389541625972	316.7267761230469	1036.797485351562	164.0459899902343	342.0751037597656	1049.716674804688	101.0001678466797	401.7624816894531	1044.339599609375	173.4219970703125	4.945633411407429	886.6864624023438	340.4760437011718	15.24398803710932	917.6554565429688	461.9257202148437	-117.611572265625	656.3607788085938	210.939468383789	-139.7953186035156	642.1060791015625	87.24485015869135	-191.1104278564454	649.1254272460938	431.5266113281249	-165.7821502685547	644.5181884765625	353.4088745117187	-32.99941635131841	544.42431640625	429.6794433593749	-263.8169555664063	617.983642578125	385.6728515624999	-8.206729888916032	209.5286560058594	133.2593688964844	-165.4943389892578	303.6374816894531	176.2244873046874	-186.305419921875	299.52099609375	102.1628189086914	-255.4517822265625	264.6927490234375	141.0680541992187	
737	6.133333333333333	135.7283020019531	1529.244873046875	360.347686767578	160.3558502197265	1533.534423828125	234.7988281249999	-11.95873451232914	1550.320678710938	336.8438720703124	5.030044078826879	1555.40283203125	207.2895507812499	-12.89416027069096	1386.0595703125	365.9566345214843	-2.82740259170534	1376.691650390625	145.9911804199218	16.47993087768551	1316.268432617188	272.6972351074218	-39.73516082763675	1223.69970703125	265.5345764160156	-220.1045227050782	1379.740112304688	264.8431091308593	-412.5999145507813	1111.301879882812	328.8199462890624	-414.6612548828125	1102.875244140625	208.9619598388671	-241.0310211181641	1080.369995117188	380.334259033203	-234.089599609375	1070.39892578125	156.4890594482421	134.4991912841796	1173.166137695312	488.9847412109374	298.7381591796874	1027.31005859375	407.73876953125	319.9952392578124	1047.461059570312	467.5560302734375	402.2814025878906	1030.56201171875	404.888916015625	87.07769775390619	1133.874633789062	461.0044555664062	99.41089630126952	1133.871459960938	86.39738464355463	152.2238311767578	1166.117553710938	61.29846191406245	316.5640563964844	1036.821899414062	164.0146484375	341.8016662597656	1049.751220703125	100.9374160766601	401.5852661132812	1044.441528320312	173.2592926025391	6.006557464599568	889.79296875	340.6458435058593	15.58796691894526	921.47509765625	461.6340942382812	-120.9820556640625	655.9959106445312	210.7121276855468	-141.8949737548828	642.2962036132812	87.11270141601557	-183.232406616211	646.9293212890625	431.6832885742187	-157.7508392333985	643.0167236328125	353.5766296386718	-22.70932388305669	547.1403198242188	430.2387695312499	-255.0058898925782	613.8308715820312	385.8551330566405	-19.5940570831299	208.2738800048828	133.0646209716797	-175.5625610351563	304.6609802246094	176.1270446777343	-196.0994415283203	300.9857482910156	102.0237579345703	-266.0007629394531	267.3008728027344	140.9604339599609	
738	6.141666666666667	135.8720550537109	1528.439086914062	360.1114807128905	160.1271362304687	1532.811645507812	234.5468597412109	-11.88484573364262	1549.785278320312	337.1347045898436	4.746509552001927	1554.98291015625	207.514434814453	-13.28023719787602	1385.785522460938	366.0320434570312	-3.420620441436785	1376.341186523438	146.1757659912109	15.89086341857907	1315.781127929688	272.5229187011718	-40.73417663574222	1223.314819335938	265.4611511230468	-220.540267944336	1379.803344726562	265.1466064453124	-413.7020263671876	1111.6435546875	328.9459228515624	-415.7933044433594	1103.191650390625	209.0827026367186	-242.1869201660157	1080.649536132812	380.4378662109374	-235.1396942138672	1070.66845703125	156.5007781982421	134.1372528076171	1173.0771484375	489.0469055175781	298.4885253906249	1027.434326171875	407.5474548339844	319.3895263671874	1049.006713867188	466.90087890625	402.0922241210937	1030.641845703125	404.7104187011719	86.71454620361322	1133.74365234375	461.1409912109374	99.03255462646483	1133.825317382812	86.61326599121088	151.7768249511719	1166.137084960938	61.47227859497065	316.364990234375	1036.852172851562	163.9399719238281	341.5048217773438	1049.805053710938	100.7897338867187	401.362060546875	1044.524658203125	173.0789947509766	6.951415061950642	892.417724609375	340.7107238769531	15.57931709289545	924.5316772460938	460.9768066406249	-122.1771774291992	656.2191162109375	210.312515258789	-143.2632446289062	642.9680786132812	86.77761077880854	-175.1526947021485	643.8323364257812	431.8202819824218	-149.5579986572266	640.5558471679688	353.7084350585937	-11.22629451751714	547.4221801757812	429.3638610839843	-245.9824218750001	608.8466186523438	385.9941101074218	-31.02156066894533	207.8964233398438	132.8193359375	-185.6050109863282	306.5052490234375	175.9911346435546	-205.8222808837891	303.2012329101562	101.8423843383789	-276.5335083007812	270.6592712402344	140.9087677001953	
